<svg width="32" height="31" viewBox="0 0 32 31" fill="none" xmlns="http://www.w3.org/2000/svg">
<mask id="path-1-outside-1_78_14" maskUnits="userSpaceOnUse" x="0" y="4" width="15" height="20" fill="black">
<rect fill="white" y="4" width="15" height="20"/>
<path d="M1.41477 23V20.3409L7.62784 14.5881C8.15625 14.0767 8.59943 13.6165 8.95739 13.2074C9.32102 12.7983 9.59659 12.3977 9.78409 12.0057C9.97159 11.608 10.0653 11.179 10.0653 10.7188C10.0653 10.2074 9.94886 9.76705 9.71591 9.39773C9.48295 9.02273 9.16477 8.7358 8.76136 8.53693C8.35795 8.33239 7.90057 8.23011 7.3892 8.23011C6.85511 8.23011 6.3892 8.33807 5.99148 8.55398C5.59375 8.76989 5.28693 9.07955 5.07102 9.48295C4.85511 9.88636 4.74716 10.3665 4.74716 10.9233H1.24432C1.24432 9.78125 1.50284 8.78977 2.01989 7.94886C2.53693 7.10795 3.26136 6.45739 4.19318 5.99716C5.125 5.53693 6.19886 5.30682 7.41477 5.30682C8.66477 5.30682 9.75284 5.52841 10.679 5.97159C11.6108 6.40909 12.3352 7.01705 12.8523 7.79545C13.3693 8.57386 13.6278 9.46591 13.6278 10.4716C13.6278 11.1307 13.4972 11.7812 13.2358 12.4233C12.9801 13.0653 12.5227 13.7784 11.8636 14.5625C11.2045 15.3409 10.2756 16.2756 9.0767 17.3665L6.52841 19.8636V19.983H13.858V23H1.41477Z"/>
</mask>
<path d="M1.41477 23V20.3409L7.62784 14.5881C8.15625 14.0767 8.59943 13.6165 8.95739 13.2074C9.32102 12.7983 9.59659 12.3977 9.78409 12.0057C9.97159 11.608 10.0653 11.179 10.0653 10.7188C10.0653 10.2074 9.94886 9.76705 9.71591 9.39773C9.48295 9.02273 9.16477 8.7358 8.76136 8.53693C8.35795 8.33239 7.90057 8.23011 7.3892 8.23011C6.85511 8.23011 6.3892 8.33807 5.99148 8.55398C5.59375 8.76989 5.28693 9.07955 5.07102 9.48295C4.85511 9.88636 4.74716 10.3665 4.74716 10.9233H1.24432C1.24432 9.78125 1.50284 8.78977 2.01989 7.94886C2.53693 7.10795 3.26136 6.45739 4.19318 5.99716C5.125 5.53693 6.19886 5.30682 7.41477 5.30682C8.66477 5.30682 9.75284 5.52841 10.679 5.97159C11.6108 6.40909 12.3352 7.01705 12.8523 7.79545C13.3693 8.57386 13.6278 9.46591 13.6278 10.4716C13.6278 11.1307 13.4972 11.7812 13.2358 12.4233C12.9801 13.0653 12.5227 13.7784 11.8636 14.5625C11.2045 15.3409 10.2756 16.2756 9.0767 17.3665L6.52841 19.8636V19.983H13.858V23H1.41477Z" fill="#CACACA"/>
<path d="M1.41477 23H0.414773V24H1.41477V23ZM1.41477 20.3409L0.735365 19.6071L0.414773 19.904V20.3409H1.41477ZM7.62784 14.5881L8.30725 15.3218L8.31534 15.3143L8.32326 15.3067L7.62784 14.5881ZM8.95739 13.2074L8.20995 12.543L8.20481 12.5489L8.95739 13.2074ZM9.78409 12.0057L10.6862 12.4371L10.6886 12.4321L9.78409 12.0057ZM9.71591 9.39773L8.86645 9.92542L8.87011 9.93123L9.71591 9.39773ZM8.76136 8.53693L8.30911 9.42889L8.31921 9.43387L8.76136 8.53693ZM5.07102 9.48295L5.95269 9.95483L5.95269 9.95483L5.07102 9.48295ZM4.74716 10.9233V11.9233H5.74716V10.9233H4.74716ZM1.24432 10.9233H0.244318V11.9233H1.24432V10.9233ZM2.01989 7.94886L2.87174 8.47264L2.87174 8.47264L2.01989 7.94886ZM4.19318 5.99716L3.75035 5.10055L3.75035 5.10055L4.19318 5.99716ZM10.679 5.97159L10.2473 6.87366L10.254 6.87678L10.679 5.97159ZM12.8523 7.79545L12.0193 8.34875L12.0193 8.34875L12.8523 7.79545ZM13.2358 12.4233L12.3096 12.0462L12.3068 12.0533L13.2358 12.4233ZM11.8636 14.5625L12.6268 15.2087L12.6291 15.206L11.8636 14.5625ZM9.0767 17.3665L8.40368 16.6269L8.39001 16.6393L8.3768 16.6522L9.0767 17.3665ZM6.52841 19.8636L5.82851 19.1494L5.52841 19.4435V19.8636H6.52841ZM6.52841 19.983H5.52841V20.983H6.52841V19.983ZM13.858 19.983H14.858V18.983H13.858V19.983ZM13.858 23V24H14.858V23H13.858ZM2.41477 23V20.3409H0.414773V23H2.41477ZM2.09418 21.0747L8.30725 15.3218L6.94843 13.8543L0.735365 19.6071L2.09418 21.0747ZM8.32326 15.3067C8.86513 14.7823 9.32874 14.3016 9.70996 13.8659L8.20481 12.5489C7.87013 12.9314 7.44737 13.3711 6.93242 13.8695L8.32326 15.3067ZM9.7048 13.8718C10.1153 13.4099 10.4494 12.9322 10.6862 12.4371L8.88196 11.5742C8.74375 11.8632 8.52672 12.1867 8.20998 12.543L9.7048 13.8718ZM10.6886 12.4321C10.9419 11.8948 11.0653 11.3194 11.0653 10.7188H9.06534C9.06534 11.0386 9.00125 11.3211 8.87957 11.5793L10.6886 12.4321ZM11.0653 10.7188C11.0653 10.0514 10.9116 9.41893 10.5617 8.86422L8.87011 9.93123C8.98613 10.1152 9.06534 10.3634 9.06534 10.7188H11.0653ZM10.5654 8.87004C10.2319 8.3332 9.7712 7.91983 9.20352 7.63999L8.31921 9.43387C8.55835 9.55176 8.73405 9.71225 8.86647 9.92541L10.5654 8.87004ZM9.21359 7.64503C8.65267 7.36062 8.03701 7.23011 7.3892 7.23011V9.23011C7.76412 9.23011 8.06324 9.30416 8.30913 9.42883L9.21359 7.64503ZM7.3892 7.23011C6.71853 7.23011 6.08288 7.36651 5.51439 7.67512L6.46857 9.43283C6.69553 9.30963 6.9917 9.23011 7.3892 9.23011V7.23011ZM5.51439 7.67512C4.94293 7.98534 4.49638 8.43742 4.18936 9.01108L5.95269 9.95483C6.07748 9.72167 6.24457 9.55443 6.46857 9.43283L5.51439 7.67512ZM4.18936 9.01108C3.88063 9.58792 3.74716 10.2372 3.74716 10.9233H5.74716C5.74716 10.4957 5.8296 10.1848 5.95269 9.95483L4.18936 9.01108ZM4.74716 9.92329H1.24432V11.9233H4.74716V9.92329ZM2.24432 10.9233C2.24432 9.93664 2.46595 9.13261 2.87174 8.47264L1.16803 7.42509C0.539735 8.44693 0.244318 9.62586 0.244318 10.9233H2.24432ZM2.87174 8.47264C3.28492 7.80065 3.86356 7.27528 4.63602 6.89376L3.75035 5.10055C2.65916 5.63949 1.78894 6.41526 1.16803 7.42509L2.87174 8.47264ZM4.63602 6.89376C5.40855 6.5122 6.32644 6.30682 7.41477 6.30682V4.30682C6.07129 4.30682 4.84145 4.56166 3.75035 5.10055L4.63602 6.89376ZM7.41477 6.30682C8.54729 6.30682 9.48205 6.50742 10.2473 6.87363L11.1106 5.06955C10.0236 4.54939 8.78225 4.30682 7.41477 4.30682V6.30682ZM10.254 6.87678C11.0375 7.24467 11.6136 7.73797 12.0193 8.34875L13.6853 7.24216C13.0569 6.29612 12.1841 5.57351 11.104 5.0664L10.254 6.87678ZM12.0193 8.34875C12.419 8.95057 12.6278 9.64705 12.6278 10.4716H14.6278C14.6278 9.28477 14.3196 8.19715 13.6853 7.24216L12.0193 8.34875ZM12.6278 10.4716C12.6278 10.9948 12.5248 11.5176 12.3096 12.0463L14.162 12.8003C14.4695 12.0449 14.6278 11.2666 14.6278 10.4716H12.6278ZM12.3068 12.0533C12.1048 12.5606 11.7183 13.1812 11.0982 13.919L12.6291 15.206C13.3271 14.3756 13.8555 13.5701 14.1648 12.7933L12.3068 12.0533ZM11.1005 13.9163C10.4807 14.6483 9.5868 15.5503 8.40368 16.6269L9.74973 18.1061C10.9643 17.0009 11.9284 16.0335 12.6268 15.2087L11.1005 13.9163ZM8.3768 16.6522L5.82851 19.1494L7.22831 20.5779L9.77661 18.0807L8.3768 16.6522ZM5.52841 19.8636V19.983H7.52841V19.8636H5.52841ZM6.52841 20.983H13.858V18.983H6.52841V20.983ZM12.858 19.983V23H14.858V19.983H12.858ZM13.858 22H1.41477V24H13.858V22Z" fill="#8E8E8E" mask="url(#path-1-outside-1_78_14)"/>
<mask id="path-3-outside-2_78_14" maskUnits="userSpaceOnUse" x="8" y="4" width="15" height="20" fill="black">
<rect fill="white" x="8" y="4" width="15" height="20"/>
<path d="M9.41477 23V20.3409L15.6278 14.5881C16.1563 14.0767 16.5994 13.6165 16.9574 13.2074C17.321 12.7983 17.5966 12.3977 17.7841 12.0057C17.9716 11.608 18.0653 11.179 18.0653 10.7188C18.0653 10.2074 17.9489 9.76705 17.7159 9.39773C17.483 9.02273 17.1648 8.7358 16.7614 8.53693C16.358 8.33239 15.9006 8.23011 15.3892 8.23011C14.8551 8.23011 14.3892 8.33807 13.9915 8.55398C13.5938 8.76989 13.2869 9.07955 13.071 9.48295C12.8551 9.88636 12.7472 10.3665 12.7472 10.9233H9.24432C9.24432 9.78125 9.50284 8.78977 10.0199 7.94886C10.5369 7.10795 11.2614 6.45739 12.1932 5.99716C13.125 5.53693 14.1989 5.30682 15.4148 5.30682C16.6648 5.30682 17.7528 5.52841 18.679 5.97159C19.6108 6.40909 20.3352 7.01705 20.8523 7.79545C21.3693 8.57386 21.6278 9.46591 21.6278 10.4716C21.6278 11.1307 21.4972 11.7812 21.2358 12.4233C20.9801 13.0653 20.5227 13.7784 19.8636 14.5625C19.2045 15.3409 18.2756 16.2756 17.0767 17.3665L14.5284 19.8636V19.983H21.858V23H9.41477Z"/>
</mask>
<path d="M9.41477 23V20.3409L15.6278 14.5881C16.1563 14.0767 16.5994 13.6165 16.9574 13.2074C17.321 12.7983 17.5966 12.3977 17.7841 12.0057C17.9716 11.608 18.0653 11.179 18.0653 10.7188C18.0653 10.2074 17.9489 9.76705 17.7159 9.39773C17.483 9.02273 17.1648 8.7358 16.7614 8.53693C16.358 8.33239 15.9006 8.23011 15.3892 8.23011C14.8551 8.23011 14.3892 8.33807 13.9915 8.55398C13.5938 8.76989 13.2869 9.07955 13.071 9.48295C12.8551 9.88636 12.7472 10.3665 12.7472 10.9233H9.24432C9.24432 9.78125 9.50284 8.78977 10.0199 7.94886C10.5369 7.10795 11.2614 6.45739 12.1932 5.99716C13.125 5.53693 14.1989 5.30682 15.4148 5.30682C16.6648 5.30682 17.7528 5.52841 18.679 5.97159C19.6108 6.40909 20.3352 7.01705 20.8523 7.79545C21.3693 8.57386 21.6278 9.46591 21.6278 10.4716C21.6278 11.1307 21.4972 11.7812 21.2358 12.4233C20.9801 13.0653 20.5227 13.7784 19.8636 14.5625C19.2045 15.3409 18.2756 16.2756 17.0767 17.3665L14.5284 19.8636V19.983H21.858V23H9.41477Z" fill="#8E8E8E"/>
<path d="M9.41477 23H8.41477V24H9.41477V23ZM9.41477 20.3409L8.73536 19.6071L8.41477 19.904V20.3409H9.41477ZM15.6278 14.5881L16.3072 15.3218L16.3153 15.3143L16.3233 15.3067L15.6278 14.5881ZM16.9574 13.2074L16.21 12.543L16.2048 12.5489L16.9574 13.2074ZM17.7841 12.0057L18.6862 12.4371L18.6886 12.4321L17.7841 12.0057ZM17.7159 9.39773L16.8664 9.92542L16.8701 9.93123L17.7159 9.39773ZM16.7614 8.53693L16.3091 9.42889L16.3192 9.43387L16.7614 8.53693ZM13.071 9.48295L13.9527 9.95483L13.9527 9.95483L13.071 9.48295ZM12.7472 10.9233V11.9233H13.7472V10.9233H12.7472ZM9.24432 10.9233H8.24432V11.9233H9.24432V10.9233ZM10.0199 7.94886L10.8717 8.47264L10.8717 8.47264L10.0199 7.94886ZM12.1932 5.99716L11.7503 5.10055L11.7503 5.10055L12.1932 5.99716ZM18.679 5.97159L18.2473 6.87366L18.254 6.87678L18.679 5.97159ZM20.8523 7.79545L20.0193 8.34875L20.0193 8.34875L20.8523 7.79545ZM21.2358 12.4233L20.3096 12.0462L20.3068 12.0533L21.2358 12.4233ZM19.8636 14.5625L20.6268 15.2087L20.6291 15.206L19.8636 14.5625ZM17.0767 17.3665L16.4037 16.6269L16.39 16.6393L16.3768 16.6522L17.0767 17.3665ZM14.5284 19.8636L13.8285 19.1494L13.5284 19.4435V19.8636H14.5284ZM14.5284 19.983H13.5284V20.983H14.5284V19.983ZM21.858 19.983H22.858V18.983H21.858V19.983ZM21.858 23V24H22.858V23H21.858ZM10.4148 23V20.3409H8.41477V23H10.4148ZM10.0942 21.0747L16.3072 15.3218L14.9484 13.8543L8.73536 19.6071L10.0942 21.0747ZM16.3233 15.3067C16.8651 14.7823 17.3287 14.3016 17.71 13.8659L16.2048 12.5489C15.8701 12.9314 15.4474 13.3711 14.9324 13.8695L16.3233 15.3067ZM17.7048 13.8718C18.1153 13.4099 18.4494 12.9322 18.6862 12.4371L16.882 11.5742C16.7437 11.8632 16.5267 12.1867 16.21 12.543L17.7048 13.8718ZM18.6886 12.4321C18.9419 11.8948 19.0653 11.3194 19.0653 10.7188H17.0653C17.0653 11.0386 17.0013 11.3211 16.8796 11.5793L18.6886 12.4321ZM19.0653 10.7188C19.0653 10.0514 18.9116 9.41893 18.5617 8.86422L16.8701 9.93123C16.9861 10.1152 17.0653 10.3634 17.0653 10.7188H19.0653ZM18.5654 8.87004C18.2319 8.3332 17.7712 7.91983 17.2035 7.63999L16.3192 9.43387C16.5584 9.55176 16.7341 9.71225 16.8665 9.92541L18.5654 8.87004ZM17.2136 7.64503C16.6527 7.36062 16.037 7.23011 15.3892 7.23011V9.23011C15.7641 9.23011 16.0632 9.30416 16.3091 9.42883L17.2136 7.64503ZM15.3892 7.23011C14.7185 7.23011 14.0829 7.36651 13.5144 7.67512L14.4686 9.43283C14.6955 9.30963 14.9917 9.23011 15.3892 9.23011V7.23011ZM13.5144 7.67512C12.9429 7.98534 12.4964 8.43742 12.1894 9.01108L13.9527 9.95483C14.0775 9.72167 14.2446 9.55443 14.4686 9.43283L13.5144 7.67512ZM12.1894 9.01108C11.8806 9.58792 11.7472 10.2372 11.7472 10.9233H13.7472C13.7472 10.4957 13.8296 10.1848 13.9527 9.95483L12.1894 9.01108ZM12.7472 9.92329H9.24432V11.9233H12.7472V9.92329ZM10.2443 10.9233C10.2443 9.93664 10.4659 9.13261 10.8717 8.47264L9.16803 7.42509C8.53974 8.44693 8.24432 9.62586 8.24432 10.9233H10.2443ZM10.8717 8.47264C11.2849 7.80065 11.8636 7.27528 12.636 6.89376L11.7503 5.10055C10.6592 5.63949 9.78894 6.41526 9.16803 7.42509L10.8717 8.47264ZM12.636 6.89376C13.4086 6.5122 14.3264 6.30682 15.4148 6.30682V4.30682C14.0713 4.30682 12.8414 4.56166 11.7503 5.10055L12.636 6.89376ZM15.4148 6.30682C16.5473 6.30682 17.482 6.50742 18.2473 6.87363L19.1106 5.06955C18.0236 4.54939 16.7823 4.30682 15.4148 4.30682V6.30682ZM18.254 6.87678C19.0375 7.24467 19.6136 7.73797 20.0193 8.34875L21.6853 7.24216C21.0569 6.29612 20.1841 5.57351 19.104 5.0664L18.254 6.87678ZM20.0193 8.34875C20.419 8.95057 20.6278 9.64705 20.6278 10.4716H22.6278C22.6278 9.28477 22.3196 8.19715 21.6853 7.24216L20.0193 8.34875ZM20.6278 10.4716C20.6278 10.9948 20.5248 11.5176 20.3096 12.0463L22.162 12.8003C22.4695 12.0449 22.6278 11.2666 22.6278 10.4716H20.6278ZM20.3068 12.0533C20.1048 12.5606 19.7183 13.1812 19.0982 13.919L20.6291 15.206C21.3271 14.3756 21.8555 13.5701 22.1648 12.7933L20.3068 12.0533ZM19.1005 13.9163C18.4807 14.6483 17.5868 15.5503 16.4037 16.6269L17.7497 18.1061C18.9643 17.0009 19.9284 16.0335 20.6268 15.2087L19.1005 13.9163ZM16.3768 16.6522L13.8285 19.1494L15.2283 20.5779L17.7766 18.0807L16.3768 16.6522ZM13.5284 19.8636V19.983H15.5284V19.8636H13.5284ZM14.5284 20.983H21.858V18.983H14.5284V20.983ZM20.858 19.983V23H22.858V19.983H20.858ZM21.858 22H9.41477V24H21.858V22Z" fill="#CACACA" mask="url(#path-3-outside-2_78_14)"/>
<mask id="path-5-outside-3_78_14" maskUnits="userSpaceOnUse" x="16" y="4" width="15" height="20" fill="black">
<rect fill="white" x="16" y="4" width="15" height="20"/>
<path d="M17.4148 23V20.3409L23.6278 14.5881C24.1563 14.0767 24.5994 13.6165 24.9574 13.2074C25.321 12.7983 25.5966 12.3977 25.7841 12.0057C25.9716 11.608 26.0653 11.179 26.0653 10.7188C26.0653 10.2074 25.9489 9.76705 25.7159 9.39773C25.483 9.02273 25.1648 8.7358 24.7614 8.53693C24.358 8.33239 23.9006 8.23011 23.3892 8.23011C22.8551 8.23011 22.3892 8.33807 21.9915 8.55398C21.5938 8.76989 21.2869 9.07955 21.071 9.48295C20.8551 9.88636 20.7472 10.3665 20.7472 10.9233H17.2443C17.2443 9.78125 17.5028 8.78977 18.0199 7.94886C18.5369 7.10795 19.2614 6.45739 20.1932 5.99716C21.125 5.53693 22.1989 5.30682 23.4148 5.30682C24.6648 5.30682 25.7528 5.52841 26.679 5.97159C27.6108 6.40909 28.3352 7.01705 28.8523 7.79545C29.3693 8.57386 29.6278 9.46591 29.6278 10.4716C29.6278 11.1307 29.4972 11.7812 29.2358 12.4233C28.9801 13.0653 28.5227 13.7784 27.8636 14.5625C27.2045 15.3409 26.2756 16.2756 25.0767 17.3665L22.5284 19.8636V19.983H29.858V23H17.4148Z"/>
</mask>
<path d="M17.4148 23V20.3409L23.6278 14.5881C24.1563 14.0767 24.5994 13.6165 24.9574 13.2074C25.321 12.7983 25.5966 12.3977 25.7841 12.0057C25.9716 11.608 26.0653 11.179 26.0653 10.7188C26.0653 10.2074 25.9489 9.76705 25.7159 9.39773C25.483 9.02273 25.1648 8.7358 24.7614 8.53693C24.358 8.33239 23.9006 8.23011 23.3892 8.23011C22.8551 8.23011 22.3892 8.33807 21.9915 8.55398C21.5938 8.76989 21.2869 9.07955 21.071 9.48295C20.8551 9.88636 20.7472 10.3665 20.7472 10.9233H17.2443C17.2443 9.78125 17.5028 8.78977 18.0199 7.94886C18.5369 7.10795 19.2614 6.45739 20.1932 5.99716C21.125 5.53693 22.1989 5.30682 23.4148 5.30682C24.6648 5.30682 25.7528 5.52841 26.679 5.97159C27.6108 6.40909 28.3352 7.01705 28.8523 7.79545C29.3693 8.57386 29.6278 9.46591 29.6278 10.4716C29.6278 11.1307 29.4972 11.7812 29.2358 12.4233C28.9801 13.0653 28.5227 13.7784 27.8636 14.5625C27.2045 15.3409 26.2756 16.2756 25.0767 17.3665L22.5284 19.8636V19.983H29.858V23H17.4148Z" fill="#1D1D1D"/>
<path d="M17.4148 23H16.4148V24H17.4148V23ZM17.4148 20.3409L16.7354 19.6071L16.4148 19.904V20.3409H17.4148ZM23.6278 14.5881L24.3072 15.3218L24.3153 15.3143L24.3233 15.3067L23.6278 14.5881ZM24.9574 13.2074L24.21 12.543L24.2048 12.5489L24.9574 13.2074ZM25.7841 12.0057L26.6862 12.4371L26.6886 12.4321L25.7841 12.0057ZM25.7159 9.39773L24.8664 9.92542L24.8701 9.93123L25.7159 9.39773ZM24.7614 8.53693L24.3091 9.42889L24.3192 9.43387L24.7614 8.53693ZM21.071 9.48295L21.9527 9.95483L21.9527 9.95483L21.071 9.48295ZM20.7472 10.9233V11.9233H21.7472V10.9233H20.7472ZM17.2443 10.9233H16.2443V11.9233H17.2443V10.9233ZM18.0199 7.94886L18.8717 8.47264L18.8717 8.47264L18.0199 7.94886ZM20.1932 5.99716L19.7503 5.10055L19.7503 5.10055L20.1932 5.99716ZM26.679 5.97159L26.2473 6.87366L26.254 6.87678L26.679 5.97159ZM28.8523 7.79545L28.0193 8.34875L28.0193 8.34875L28.8523 7.79545ZM29.2358 12.4233L28.3096 12.0462L28.3068 12.0533L29.2358 12.4233ZM27.8636 14.5625L28.6268 15.2087L28.6291 15.206L27.8636 14.5625ZM25.0767 17.3665L24.4037 16.6269L24.39 16.6393L24.3768 16.6522L25.0767 17.3665ZM22.5284 19.8636L21.8285 19.1494L21.5284 19.4435V19.8636H22.5284ZM22.5284 19.983H21.5284V20.983H22.5284V19.983ZM29.858 19.983H30.858V18.983H29.858V19.983ZM29.858 23V24H30.858V23H29.858ZM18.4148 23V20.3409H16.4148V23H18.4148ZM18.0942 21.0747L24.3072 15.3218L22.9484 13.8543L16.7354 19.6071L18.0942 21.0747ZM24.3233 15.3067C24.8651 14.7823 25.3287 14.3016 25.71 13.8659L24.2048 12.5489C23.8701 12.9314 23.4474 13.3711 22.9324 13.8695L24.3233 15.3067ZM25.7048 13.8718C26.1153 13.4099 26.4494 12.9322 26.6862 12.4371L24.882 11.5742C24.7437 11.8632 24.5267 12.1867 24.21 12.543L25.7048 13.8718ZM26.6886 12.4321C26.9419 11.8948 27.0653 11.3194 27.0653 10.7188H25.0653C25.0653 11.0386 25.0013 11.3211 24.8796 11.5793L26.6886 12.4321ZM27.0653 10.7188C27.0653 10.0514 26.9116 9.41893 26.5617 8.86422L24.8701 9.93123C24.9861 10.1152 25.0653 10.3634 25.0653 10.7188H27.0653ZM26.5654 8.87004C26.2319 8.3332 25.7712 7.91983 25.2035 7.63999L24.3192 9.43387C24.5584 9.55176 24.7341 9.71225 24.8665 9.92541L26.5654 8.87004ZM25.2136 7.64503C24.6527 7.36062 24.037 7.23011 23.3892 7.23011V9.23011C23.7641 9.23011 24.0632 9.30416 24.3091 9.42883L25.2136 7.64503ZM23.3892 7.23011C22.7185 7.23011 22.0829 7.36651 21.5144 7.67512L22.4686 9.43283C22.6955 9.30963 22.9917 9.23011 23.3892 9.23011V7.23011ZM21.5144 7.67512C20.9429 7.98534 20.4964 8.43742 20.1894 9.01108L21.9527 9.95483C22.0775 9.72167 22.2446 9.55443 22.4686 9.43283L21.5144 7.67512ZM20.1894 9.01108C19.8806 9.58792 19.7472 10.2372 19.7472 10.9233H21.7472C21.7472 10.4957 21.8296 10.1848 21.9527 9.95483L20.1894 9.01108ZM20.7472 9.92329H17.2443V11.9233H20.7472V9.92329ZM18.2443 10.9233C18.2443 9.93664 18.4659 9.13261 18.8717 8.47264L17.168 7.42509C16.5397 8.44693 16.2443 9.62586 16.2443 10.9233H18.2443ZM18.8717 8.47264C19.2849 7.80065 19.8636 7.27528 20.636 6.89376L19.7503 5.10055C18.6592 5.63949 17.7889 6.41526 17.168 7.42509L18.8717 8.47264ZM20.636 6.89376C21.4086 6.5122 22.3264 6.30682 23.4148 6.30682V4.30682C22.0713 4.30682 20.8414 4.56166 19.7503 5.10055L20.636 6.89376ZM23.4148 6.30682C24.5473 6.30682 25.482 6.50742 26.2473 6.87363L27.1106 5.06955C26.0236 4.54939 24.7823 4.30682 23.4148 4.30682V6.30682ZM26.254 6.87678C27.0375 7.24467 27.6136 7.73797 28.0193 8.34875L29.6853 7.24216C29.0569 6.29612 28.1841 5.57351 27.104 5.0664L26.254 6.87678ZM28.0193 8.34875C28.419 8.95057 28.6278 9.64705 28.6278 10.4716H30.6278C30.6278 9.28477 30.3196 8.19715 29.6853 7.24216L28.0193 8.34875ZM28.6278 10.4716C28.6278 10.9948 28.5248 11.5176 28.3096 12.0463L30.162 12.8003C30.4695 12.0449 30.6278 11.2666 30.6278 10.4716H28.6278ZM28.3068 12.0533C28.1048 12.5606 27.7183 13.1812 27.0982 13.919L28.6291 15.206C29.3271 14.3756 29.8555 13.5701 30.1648 12.7933L28.3068 12.0533ZM27.1005 13.9163C26.4807 14.6483 25.5868 15.5503 24.4037 16.6269L25.7497 18.1061C26.9643 17.0009 27.9284 16.0335 28.6268 15.2087L27.1005 13.9163ZM24.3768 16.6522L21.8285 19.1494L23.2283 20.5779L25.7766 18.0807L24.3768 16.6522ZM21.5284 19.8636V19.983H23.5284V19.8636H21.5284ZM22.5284 20.983H29.858V18.983H22.5284V20.983ZM28.858 19.983V23H30.858V19.983H28.858ZM29.858 22H17.4148V24H29.858V22Z" fill="#8E8E8E" mask="url(#path-5-outside-3_78_14)"/>
<path d="M4.6108 30.0575C4.35369 30.0575 4.12358 29.9915 3.92045 29.8594C3.71733 29.7273 3.55682 29.5355 3.43892 29.2841C3.32102 29.0327 3.26207 28.7273 3.26207 28.3679C3.26207 28.0043 3.32173 27.6974 3.44105 27.4474C3.56179 27.196 3.72443 27.0064 3.92898 26.8786C4.13352 26.7493 4.36151 26.6847 4.61293 26.6847C4.80469 26.6847 4.96236 26.7173 5.08594 26.7827C5.20952 26.8466 5.30753 26.924 5.37997 27.0149C5.45241 27.1044 5.50852 27.1889 5.5483 27.2685H5.58026V25.6364H6.35369V30H5.59517V29.4844H5.5483C5.50852 29.5639 5.45099 29.6484 5.37571 29.7379C5.30043 29.826 5.20099 29.9013 5.07741 29.9638C4.95384 30.0263 4.7983 30.0575 4.6108 30.0575ZM4.82599 29.4247C4.98935 29.4247 5.12855 29.3807 5.24361 29.2926C5.35866 29.2031 5.44602 29.0788 5.50568 28.9197C5.56534 28.7607 5.59517 28.5753 5.59517 28.3636C5.59517 28.152 5.56534 27.968 5.50568 27.8118C5.44744 27.6555 5.3608 27.5341 5.24574 27.4474C5.1321 27.3608 4.99219 27.3175 4.82599 27.3175C4.65412 27.3175 4.51065 27.3622 4.3956 27.4517C4.28054 27.5412 4.19389 27.6648 4.13565 27.8224C4.07741 27.9801 4.0483 28.1605 4.0483 28.3636C4.0483 28.5682 4.07741 28.7507 4.13565 28.9112C4.19531 29.0703 4.28267 29.196 4.39773 29.2884C4.5142 29.3793 4.65696 29.4247 4.82599 29.4247ZM8.60316 30.0639C8.28356 30.0639 8.00657 29.9936 7.77219 29.853C7.53782 29.7124 7.356 29.5156 7.22674 29.2628C7.0989 29.0099 7.03498 28.7145 7.03498 28.3764C7.03498 28.0384 7.0989 27.7422 7.22674 27.4879C7.356 27.2337 7.53782 27.0362 7.77219 26.8956C8.00657 26.755 8.28356 26.6847 8.60316 26.6847C8.92276 26.6847 9.19975 26.755 9.43413 26.8956C9.6685 27.0362 9.84961 27.2337 9.97745 27.4879C10.1067 27.7422 10.1713 28.0384 10.1713 28.3764C10.1713 28.7145 10.1067 29.0099 9.97745 29.2628C9.84961 29.5156 9.6685 29.7124 9.43413 29.853C9.19975 29.9936 8.92276 30.0639 8.60316 30.0639ZM8.60742 29.446C8.78072 29.446 8.9256 29.3984 9.04208 29.3033C9.15856 29.2067 9.24521 29.0774 9.30202 28.9155C9.36026 28.7536 9.38938 28.5732 9.38938 28.3743C9.38938 28.174 9.36026 27.9929 9.30202 27.831C9.24521 27.6676 9.15856 27.5376 9.04208 27.4411C8.9256 27.3445 8.78072 27.2962 8.60742 27.2962C8.42987 27.2962 8.28214 27.3445 8.16424 27.4411C8.04776 27.5376 7.9604 27.6676 7.90217 27.831C7.84535 27.9929 7.81694 28.174 7.81694 28.3743C7.81694 28.5732 7.84535 28.7536 7.90217 28.9155C7.9604 29.0774 8.04776 29.2067 8.16424 29.3033C8.28214 29.3984 8.42987 29.446 8.60742 29.446ZM12.4837 26.7273V27.3239H10.549V26.7273H12.4837ZM11.0327 30V26.4183C11.0327 26.1982 11.0781 26.0149 11.169 25.8686C11.2614 25.7223 11.3849 25.6129 11.5398 25.5405C11.6946 25.468 11.8665 25.4318 12.0554 25.4318C12.1889 25.4318 12.3075 25.4425 12.4112 25.4638C12.5149 25.4851 12.5916 25.5043 12.6413 25.5213L12.4879 26.1179C12.4553 26.108 12.4141 26.098 12.3643 26.0881C12.3146 26.0767 12.2592 26.071 12.1982 26.071C12.0547 26.071 11.9531 26.1058 11.8935 26.1754C11.8352 26.2436 11.8061 26.3416 11.8061 26.4695V30H11.0327ZM16.0036 30.0639C15.6768 30.0639 15.3963 29.9922 15.1619 29.8487C14.929 29.7053 14.7493 29.5071 14.6229 29.2543C14.4979 29 14.4354 28.7074 14.4354 28.3764C14.4354 28.044 14.4993 27.7507 14.6271 27.4964C14.755 27.2408 14.9354 27.0419 15.1683 26.8999C15.4027 26.7564 15.6797 26.6847 15.9993 26.6847C16.2649 26.6847 16.5 26.7337 16.7045 26.8317C16.9105 26.9283 17.0746 27.0653 17.1967 27.2429C17.3189 27.419 17.3885 27.625 17.4055 27.8608H16.6683C16.6385 27.7031 16.5675 27.5717 16.4553 27.4666C16.3445 27.3601 16.196 27.3068 16.0099 27.3068C15.8523 27.3068 15.7138 27.3494 15.5945 27.4347C15.4751 27.5185 15.3821 27.6392 15.3153 27.7969C15.25 27.9545 15.2173 28.1435 15.2173 28.3636C15.2173 28.5866 15.25 28.7784 15.3153 28.9389C15.3807 29.098 15.4723 29.2209 15.5902 29.3075C15.7095 29.3928 15.8494 29.4354 16.0099 29.4354C16.1236 29.4354 16.2251 29.4141 16.3146 29.3714C16.4055 29.3274 16.4815 29.2642 16.5426 29.1818C16.6037 29.0994 16.6456 28.9993 16.6683 28.8814H17.4055C17.3871 29.1129 17.3189 29.3182 17.201 29.4972C17.0831 29.6747 16.9226 29.8139 16.7195 29.9148C16.5163 30.0142 16.2777 30.0639 16.0036 30.0639ZM19.4664 30.0639C19.1468 30.0639 18.8699 29.9936 18.6355 29.853C18.4011 29.7124 18.2193 29.5156 18.09 29.2628C17.9622 29.0099 17.8983 28.7145 17.8983 28.3764C17.8983 28.0384 17.9622 27.7422 18.09 27.4879C18.2193 27.2337 18.4011 27.0362 18.6355 26.8956C18.8699 26.755 19.1468 26.6847 19.4664 26.6847C19.786 26.6847 20.063 26.755 20.2974 26.8956C20.5318 27.0362 20.7129 27.2337 20.8407 27.4879C20.97 27.7422 21.0346 28.0384 21.0346 28.3764C21.0346 28.7145 20.97 29.0099 20.8407 29.2628C20.7129 29.5156 20.5318 29.7124 20.2974 29.853C20.063 29.9936 19.786 30.0639 19.4664 30.0639ZM19.4707 29.446C19.644 29.446 19.7889 29.3984 19.9054 29.3033C20.0218 29.2067 20.1085 29.0774 20.1653 28.9155C20.2235 28.7536 20.2527 28.5732 20.2527 28.3743C20.2527 28.174 20.2235 27.9929 20.1653 27.831C20.1085 27.6676 20.0218 27.5376 19.9054 27.4411C19.7889 27.3445 19.644 27.2962 19.4707 27.2962C19.2931 27.2962 19.1454 27.3445 19.0275 27.4411C18.911 27.5376 18.8237 27.6676 18.7654 27.831C18.7086 27.9929 18.6802 28.174 18.6802 28.3743C18.6802 28.5732 18.7086 28.7536 18.7654 28.9155C18.8237 29.0774 18.911 29.2067 19.0275 29.3033C19.1454 29.3984 19.2931 29.446 19.4707 29.446ZM22.9038 30.0575C22.6467 30.0575 22.4165 29.9915 22.2134 29.8594C22.0103 29.7273 21.8498 29.5355 21.7319 29.2841C21.614 29.0327 21.555 28.7273 21.555 28.3679C21.555 28.0043 21.6147 27.6974 21.734 27.4474C21.8548 27.196 22.0174 27.0064 22.2219 26.8786C22.4265 26.7493 22.6545 26.6847 22.9059 26.6847C23.0977 26.6847 23.2553 26.7173 23.3789 26.7827C23.5025 26.8466 23.6005 26.924 23.6729 27.0149C23.7454 27.1044 23.8015 27.1889 23.8413 27.2685H23.8732V25.6364H24.6467V30H23.8881V29.4844H23.8413C23.8015 29.5639 23.744 29.6484 23.6687 29.7379C23.5934 29.826 23.494 29.9013 23.3704 29.9638C23.2468 30.0263 23.0913 30.0575 22.9038 30.0575ZM23.119 29.4247C23.2823 29.4247 23.4215 29.3807 23.5366 29.2926C23.6516 29.2031 23.739 29.0788 23.7987 28.9197C23.8583 28.7607 23.8881 28.5753 23.8881 28.3636C23.8881 28.152 23.8583 27.968 23.7987 27.8118C23.7404 27.6555 23.6538 27.5341 23.5387 27.4474C23.4251 27.3608 23.2852 27.3175 23.119 27.3175C22.9471 27.3175 22.8036 27.3622 22.6886 27.4517C22.5735 27.5412 22.4869 27.6648 22.4286 27.8224C22.3704 27.9801 22.3413 28.1605 22.3413 28.3636C22.3413 28.5682 22.3704 28.7507 22.4286 28.9112C22.4883 29.0703 22.5756 29.196 22.6907 29.2884C22.8072 29.3793 22.9499 29.4247 23.119 29.4247ZM26.9174 30.0639C26.5893 30.0639 26.3059 29.9957 26.0673 29.8594C25.8301 29.7216 25.6475 29.527 25.5197 29.2756C25.3919 29.0227 25.3279 28.7251 25.3279 28.3828C25.3279 28.0462 25.3919 27.7507 25.5197 27.4964C25.649 27.2408 25.8294 27.0419 26.0609 26.8999C26.2924 26.7564 26.5645 26.6847 26.877 26.6847C27.0787 26.6847 27.269 26.7173 27.448 26.7827C27.6284 26.8466 27.7875 26.946 27.9252 27.081C28.0645 27.2159 28.1738 27.3878 28.2534 27.5966C28.3329 27.804 28.3727 28.0511 28.3727 28.3381V28.5746H25.6902V28.0547H27.6333C27.6319 27.907 27.6 27.7756 27.5375 27.6605C27.475 27.544 27.3876 27.4524 27.2754 27.3857C27.1646 27.3189 27.0353 27.2855 26.8876 27.2855C26.7299 27.2855 26.5914 27.3239 26.4721 27.4006C26.3528 27.4759 26.2598 27.5753 26.193 27.6989C26.1277 27.821 26.0943 27.9553 26.0929 28.1016V28.5554C26.0929 28.7457 26.1277 28.9091 26.1973 29.0455C26.2669 29.1804 26.3642 29.2841 26.4892 29.3565C26.6142 29.4276 26.7605 29.4631 26.9281 29.4631C27.0403 29.4631 27.1419 29.4474 27.2328 29.4162C27.3237 29.3835 27.4025 29.3359 27.4693 29.2734C27.536 29.2109 27.5865 29.1335 27.6206 29.0412L28.3407 29.1222C28.2953 29.3125 28.2086 29.4787 28.0808 29.6207C27.9544 29.7614 27.7924 29.8707 27.595 29.9489C27.3975 30.0256 27.1717 30.0639 26.9174 30.0639Z" fill="#CACACA"/>
</svg>
