<svg width="97" height="11" viewBox="0 0 97 11" fill="none" xmlns="http://www.w3.org/2000/svg">
<path d="M12.255 11H5.49C4.76 11 4.1 10.865 3.51 10.595C2.92 10.325 2.41 9.95 1.98 9.47C1.56 8.99 1.235 8.435 1.005 7.805C0.775 7.165 0.66 6.48 0.66 5.75C0.66 5.03 0.775 4.355 1.005 3.725C1.235 3.085 1.56 2.525 1.98 2.045C2.41 1.555 2.92 1.175 3.51 0.904999C4.1 0.634999 4.76 0.499999 5.49 0.499999H12.255V2H5.49C4.8 2 4.205 2.17 3.705 2.51C3.215 2.84 2.835 3.29 2.565 3.86C2.295 4.43 2.16 5.06 2.16 5.75C2.16 6.44 2.295 7.07 2.565 7.64C2.835 8.2 3.215 8.65 3.705 8.99C4.205 9.33 4.8 9.5 5.49 9.5H12.255V11ZM25.7927 8C25.7927 8.55 25.6227 9.055 25.2827 9.515C24.9527 9.965 24.5027 10.325 23.9327 10.595C23.3627 10.865 22.7327 11 22.0427 11H13.6577V9.5H22.0427C22.4527 9.5 22.8277 9.435 23.1677 9.305C23.5077 9.165 23.7777 8.98 23.9777 8.75C24.1877 8.52 24.2927 8.27 24.2927 8V7.25H17.4077C16.7177 7.25 16.0877 7.08 15.5177 6.74C14.9577 6.4 14.5077 5.95 14.1677 5.39C13.8277 4.82 13.6577 4.19 13.6577 3.5V0.499999H15.1577V3.5C15.1577 3.91 15.2577 4.29 15.4577 4.64C15.6577 4.98 15.9277 5.25 16.2677 5.45C16.6177 5.65 16.9977 5.75 17.4077 5.75H24.2927V0.499999H25.7927V8ZM35.7878 11H34.2878V5.75C34.2878 5.06 34.1178 4.43 33.7778 3.86C33.4478 3.29 32.9978 2.84 32.4278 2.51C31.8578 2.17 31.2278 2 30.5378 2H29.7278V11H28.2278V0.499999H30.5378C31.4878 0.499999 32.3578 0.734999 33.1478 1.205C33.9478 1.675 34.5778 2.29 35.0378 3.05C35.4978 2.29 36.1228 1.675 36.9128 1.205C37.7128 0.734999 38.5878 0.499999 39.5378 0.499999H41.8478V11H40.3478V2H39.5378C38.8478 2 38.2178 2.17 37.6478 2.51C37.0878 2.84 36.6378 3.29 36.2978 3.86C35.9578 4.43 35.7878 5.06 35.7878 5.75V11ZM56.3104 11H54.8104V8H46.4254V6.5H54.8104V2H49.4254C48.7454 2 48.1204 2.17 47.5504 2.51C46.9804 2.84 46.5254 3.29 46.1854 3.86C45.8554 4.43 45.6904 5.06 45.6904 5.75V11H44.1904V5.75C44.1904 5.03 44.3254 4.355 44.5954 3.725C44.8654 3.085 45.2404 2.525 45.7204 2.045C46.2004 1.555 46.7554 1.175 47.3854 0.904999C48.0254 0.634999 48.7054 0.499999 49.4254 0.499999H56.3104V11ZM69.8234 11H63.0584C62.3284 11 61.6684 10.865 61.0784 10.595C60.4884 10.325 59.9784 9.95 59.5484 9.47C59.1284 8.99 58.8034 8.435 58.5734 7.805C58.3434 7.165 58.2284 6.48 58.2284 5.75C58.2284 5.03 58.3434 4.355 58.5734 3.725C58.8034 3.085 59.1284 2.525 59.5484 2.045C59.9784 1.555 60.4884 1.175 61.0784 0.904999C61.6684 0.634999 62.3284 0.499999 63.0584 0.499999H69.8234V2H63.0584C62.3684 2 61.7734 2.17 61.2734 2.51C60.7834 2.84 60.4034 3.29 60.1334 3.86C59.8634 4.43 59.7284 5.06 59.7284 5.75C59.7284 6.44 59.8634 7.07 60.1334 7.64C60.4034 8.2 60.7834 8.65 61.2734 8.99C61.7734 9.33 62.3684 9.5 63.0584 9.5H68.3234V6.5H61.9634V5H69.8234V11ZM82.9159 11H72.0559V0.499999H82.9159V2H73.5559V9.5H82.9159V11ZM81.6409 6.5H74.3059V5H81.6409V6.5ZM96.3657 8C96.3657 8.55 96.2307 9.055 95.9607 9.515C95.6907 9.965 95.3307 10.325 94.8807 10.595C94.4307 10.865 93.9257 11 93.3657 11H84.2457V9.5H93.3657C93.7857 9.5 94.1407 9.355 94.4307 9.065C94.7207 8.765 94.8657 8.41 94.8657 8C94.8657 7.59 94.7207 7.24 94.4307 6.95C94.1407 6.65 93.7857 6.5 93.3657 6.5H87.2457C86.6957 6.5 86.1907 6.365 85.7307 6.095C85.2807 5.825 84.9207 5.465 84.6507 5.015C84.3807 4.555 84.2457 4.05 84.2457 3.5C84.2457 2.95 84.3807 2.45 84.6507 2C84.9207 1.54 85.2807 1.175 85.7307 0.904999C86.1907 0.634999 86.6957 0.499999 87.2457 0.499999H95.6157V2H87.2457C86.8357 2 86.4807 2.15 86.1807 2.45C85.8907 2.74 85.7457 3.09 85.7457 3.5C85.7457 3.91 85.8907 4.265 86.1807 4.565C86.4807 4.855 86.8357 5 87.2457 5H93.3657C93.9257 5 94.4307 5.135 94.8807 5.405C95.3307 5.675 95.6907 6.04 95.9607 6.5C96.2307 6.95 96.3657 7.45 96.3657 8Z" fill="#CACACA"/>
</svg>
