<svg width="26" height="25" viewBox="0 0 26 25" fill="none" xmlns="http://www.w3.org/2000/svg">
<path d="M12.8586 9.12046e-05C9.80805 -0.0114149 6.8535 1.0661 4.52654 3.03877C2.19958 5.01145 0.652978 7.74978 0.16499 10.7611C-0.322998 13.7724 0.279663 16.859 1.86455 19.4656C3.44943 22.0722 5.91249 24.0277 8.81058 24.9802C9.4511 25.0826 9.65606 24.6855 9.65606 24.3396V22.1747C6.10761 22.9433 5.35181 20.4966 5.35181 20.4966C5.11257 19.7009 4.59395 19.0185 3.89143 18.575C2.7257 17.7808 3.98111 17.8064 3.98111 17.8064C4.38322 17.8584 4.76837 18.0007 5.10778 18.2225C5.44718 18.4443 5.73204 18.74 5.94108 19.0874C6.29692 19.7201 6.88817 20.1868 7.58625 20.3859C8.28433 20.585 9.03279 20.5005 9.66887 20.1507C9.72724 19.5013 10.0131 18.8933 10.4759 18.4341C7.73452 18.1523 4.68567 17.0506 4.68567 12.1699C4.64862 10.8907 5.10764 9.64677 5.9667 8.69828C5.57667 7.59587 5.6225 6.38611 6.0948 5.31636C6.0948 5.31636 7.17087 4.97048 9.61763 6.59739C11.7154 6.03345 13.925 6.03345 16.0228 6.59739C18.4695 4.94486 19.5456 5.31636 19.5456 5.31636C20.0179 6.38611 20.0637 7.59587 19.6737 8.69828C20.5328 9.64677 20.9918 10.8907 20.9547 12.1699C20.9547 17.0634 17.9571 18.1395 15.1004 18.4597C15.4081 18.769 15.6461 19.1404 15.7986 19.5491C15.951 19.9578 16.0144 20.3944 15.9843 20.8296V24.3396C15.9843 24.6855 16.1893 25.0955 16.8426 24.9802C19.7354 24.0293 22.1949 22.0792 23.7802 19.4793C25.3654 16.8794 25.9727 13.7998 25.4931 10.7928C25.0135 7.78574 23.4784 5.04787 21.1631 3.07007C18.8478 1.09226 15.9037 0.00389001 12.8586 9.12046e-05Z" fill="#D6D6D6"/>
</svg>
