<svg width="158" height="48" viewBox="0 0 158 48" fill="none" xmlns="http://www.w3.org/2000/svg">
<path d="M37.4119 12.9091V15.6364H29.5284V12.9091H37.4119ZM31.3182 9.77273H34.9489V21.9773C34.9489 22.3125 35 22.5739 35.1023 22.7614C35.2045 22.9432 35.3466 23.071 35.5284 23.1449C35.7159 23.2187 35.9318 23.2557 36.1761 23.2557C36.3466 23.2557 36.517 23.2415 36.6875 23.2131C36.858 23.179 36.9886 23.1534 37.0795 23.1364L37.6506 25.8381C37.4688 25.8949 37.2131 25.9602 36.8835 26.0341C36.554 26.1136 36.1534 26.1619 35.6818 26.179C34.8068 26.2131 34.0398 26.0966 33.3807 25.8295C32.7273 25.5625 32.2188 25.1477 31.8551 24.5852C31.4915 24.0227 31.3125 23.3125 31.3182 22.4545V9.77273ZM39.777 26V12.9091H43.4077V26H39.777ZM41.6009 11.2216C41.0611 11.2216 40.598 11.0426 40.2116 10.6847C39.831 10.321 39.6406 9.88636 39.6406 9.38068C39.6406 8.88068 39.831 8.4517 40.2116 8.09375C40.598 7.73011 41.0611 7.54829 41.6009 7.54829C42.1406 7.54829 42.6009 7.73011 42.9815 8.09375C43.3679 8.4517 43.5611 8.88068 43.5611 9.38068C43.5611 9.88636 43.3679 10.321 42.9815 10.6847C42.6009 11.0426 42.1406 11.2216 41.6009 11.2216ZM52.282 26.2557C50.9354 26.2557 49.7763 25.983 48.8047 25.4375C47.8388 24.8864 47.0945 24.108 46.5717 23.1023C46.049 22.0909 45.7876 20.8949 45.7876 19.5142C45.7876 18.1676 46.049 16.9858 46.5717 15.9688C47.0945 14.9517 47.8303 14.1591 48.7791 13.5909C49.7337 13.0227 50.853 12.7386 52.1371 12.7386C53.0007 12.7386 53.8047 12.8778 54.549 13.1562C55.299 13.429 55.9524 13.8409 56.5092 14.392C57.0717 14.9432 57.5092 15.6364 57.8217 16.4716C58.1342 17.3011 58.2905 18.2727 58.2905 19.3864V20.3835H47.2365V18.1335H54.8729C54.8729 17.6108 54.7592 17.1477 54.532 16.7443C54.3047 16.3409 53.9893 16.0256 53.5859 15.7983C53.1882 15.5653 52.7251 15.4489 52.1967 15.4489C51.6456 15.4489 51.157 15.5767 50.7308 15.8324C50.3104 16.0824 49.9808 16.4205 49.7422 16.8466C49.5036 17.267 49.3814 17.7358 49.3757 18.2528V20.392C49.3757 21.0398 49.495 21.5994 49.7337 22.071C49.978 22.5426 50.3217 22.9062 50.7649 23.1619C51.2081 23.4176 51.7337 23.5455 52.3416 23.5455C52.745 23.5455 53.1143 23.4886 53.4496 23.375C53.7848 23.2614 54.0717 23.0909 54.3104 22.8636C54.549 22.6364 54.7308 22.358 54.8558 22.0284L58.2138 22.25C58.0433 23.0568 57.6939 23.7614 57.1655 24.3636C56.6428 24.9602 55.9666 25.4261 55.1371 25.7614C54.3132 26.0909 53.3615 26.2557 52.282 26.2557ZM60.6598 30.9091V12.9091H64.2393V15.108H64.4013C64.5604 14.7557 64.7905 14.3977 65.0916 14.0341C65.3984 13.6648 65.7962 13.358 66.2848 13.1136C66.7791 12.8636 67.3928 12.7386 68.1257 12.7386C69.0803 12.7386 69.9609 12.9886 70.7678 13.4886C71.5746 13.983 72.2195 14.7301 72.7024 15.7301C73.1854 16.7244 73.4268 17.9716 73.4268 19.4716C73.4268 20.9318 73.1911 22.1648 72.7195 23.1705C72.2536 24.1705 71.6172 24.929 70.8104 25.446C70.0092 25.9574 69.1115 26.2131 68.1172 26.2131C67.4126 26.2131 66.8132 26.0966 66.3189 25.8636C65.8303 25.6307 65.4297 25.3381 65.1172 24.9858C64.8047 24.6278 64.5661 24.267 64.4013 23.9034H64.2905V30.9091H60.6598ZM64.2138 19.4545C64.2138 20.233 64.3217 20.9119 64.5376 21.4915C64.7536 22.071 65.0661 22.5227 65.4751 22.8466C65.8842 23.1648 66.3814 23.3239 66.9666 23.3239C67.5575 23.3239 68.0575 23.1619 68.4666 22.8381C68.8757 22.5085 69.1854 22.054 69.3956 21.4744C69.6115 20.8892 69.7195 20.2159 69.7195 19.4545C69.7195 18.6989 69.6143 18.0341 69.4041 17.4602C69.1939 16.8864 68.8842 16.4375 68.4751 16.1136C68.0661 15.7898 67.5632 15.6278 66.9666 15.6278C66.3757 15.6278 65.8757 15.7841 65.4666 16.0966C65.0632 16.4091 64.7536 16.8523 64.5376 17.4261C64.3217 18 64.2138 18.6761 64.2138 19.4545ZM75.8473 26V12.9091H79.478V26H75.8473ZM77.6712 11.2216C77.1314 11.2216 76.6683 11.0426 76.282 10.6847C75.9013 10.321 75.7109 9.88636 75.7109 9.38068C75.7109 8.88068 75.9013 8.4517 76.282 8.09375C76.6683 7.73011 77.1314 7.54829 77.6712 7.54829C78.2109 7.54829 78.6712 7.73011 79.0518 8.09375C79.4382 8.4517 79.6314 8.88068 79.6314 9.38068C79.6314 9.88636 79.4382 10.321 79.0518 10.6847C78.6712 11.0426 78.2109 11.2216 77.6712 11.2216ZM86.017 18.4318V26H82.3864V12.9091H85.8466V15.2188H86C86.2898 14.4574 86.7756 13.8551 87.4574 13.4119C88.1392 12.9631 88.9659 12.7386 89.9375 12.7386C90.8466 12.7386 91.6392 12.9375 92.3153 13.3352C92.9915 13.733 93.517 14.3011 93.892 15.0398C94.267 15.7727 94.4545 16.6477 94.4545 17.6648V26H90.8239V18.3125C90.8295 17.5114 90.625 16.8864 90.2102 16.4375C89.7955 15.983 89.2244 15.7557 88.4972 15.7557C88.0085 15.7557 87.5767 15.8608 87.2017 16.071C86.8324 16.2812 86.5426 16.5881 86.3324 16.9915C86.1278 17.3892 86.0227 17.8693 86.017 18.4318ZM103.214 31.1818C102.038 31.1818 101.029 31.0199 100.188 30.696C99.353 30.3778 98.6882 29.9432 98.1939 29.392C97.6996 28.8409 97.3786 28.2216 97.2308 27.5341L100.589 27.0824C100.691 27.3438 100.853 27.5881 101.075 27.8153C101.296 28.0426 101.589 28.2244 101.952 28.3608C102.322 28.5028 102.771 28.5739 103.299 28.5739C104.089 28.5739 104.739 28.3807 105.251 27.9943C105.768 27.6136 106.026 26.9744 106.026 26.0767V23.6818H105.873C105.714 24.0455 105.475 24.3892 105.157 24.7131C104.839 25.0369 104.43 25.3011 103.93 25.5057C103.43 25.7102 102.833 25.8125 102.14 25.8125C101.157 25.8125 100.262 25.5852 99.4553 25.1307C98.6541 24.6705 98.0149 23.9687 97.5376 23.0256C97.0661 22.0767 96.8303 20.8778 96.8303 19.429C96.8303 17.946 97.0717 16.7074 97.5547 15.7131C98.0376 14.7187 98.6797 13.9744 99.4808 13.4801C100.288 12.9858 101.171 12.7386 102.131 12.7386C102.864 12.7386 103.478 12.8636 103.972 13.1136C104.467 13.358 104.864 13.6648 105.165 14.0341C105.472 14.3977 105.708 14.7557 105.873 15.108H106.009V12.9091H109.614V26.1278C109.614 27.2415 109.342 28.1733 108.796 28.9233C108.251 29.6733 107.495 30.2358 106.529 30.6108C105.569 30.9915 104.464 31.1818 103.214 31.1818ZM103.29 23.0852C103.876 23.0852 104.37 22.9403 104.773 22.6506C105.183 22.3551 105.495 21.9347 105.711 21.3892C105.933 20.8381 106.043 20.179 106.043 19.4119C106.043 18.6449 105.935 17.9801 105.719 17.4176C105.504 16.8494 105.191 16.4091 104.782 16.0966C104.373 15.7841 103.876 15.6278 103.29 15.6278C102.694 15.6278 102.191 15.7898 101.782 16.1136C101.373 16.4318 101.063 16.875 100.853 17.4432C100.643 18.0114 100.538 18.6676 100.538 19.4119C100.538 20.1676 100.643 20.821 100.853 21.3722C101.069 21.9176 101.379 22.3409 101.782 22.642C102.191 22.9375 102.694 23.0852 103.29 23.0852Z" fill="#CACACA"/>
<path d="M39.918 45.25V37H40.5938V38.1445H40.6758C40.7591 37.9648 40.8737 37.7812 41.0195 37.5937C41.1654 37.4036 41.3581 37.2435 41.5977 37.1133C41.8398 36.9831 42.1445 36.918 42.5117 36.918C43.0065 36.918 43.4388 37.0482 43.8086 37.3086C44.181 37.5664 44.4701 37.9284 44.6758 38.3945C44.8841 38.8581 44.9883 39.3984 44.9883 40.0156C44.9883 40.6354 44.8841 41.1784 44.6758 41.6445C44.4701 42.1107 44.181 42.474 43.8086 42.7344C43.4388 42.9948 43.0091 43.125 42.5195 43.125C42.1576 43.125 41.8542 43.0599 41.6094 42.9297C41.3672 42.7995 41.1706 42.6393 41.0195 42.4492C40.8711 42.2565 40.7565 42.069 40.6758 41.8867H40.6133V45.25H39.918ZM40.6055 40.0039C40.6055 40.4883 40.6771 40.918 40.8203 41.293C40.9661 41.6654 41.1745 41.9583 41.4453 42.1719C41.7187 42.3828 42.0495 42.4883 42.4375 42.4883C42.8359 42.4883 43.1719 42.3789 43.4453 42.1602C43.7214 41.9388 43.931 41.6406 44.0742 41.2656C44.2201 40.8906 44.293 40.4701 44.293 40.0039C44.293 39.543 44.2214 39.1276 44.0781 38.7578C43.9375 38.388 43.7292 38.0951 43.4531 37.8789C43.1771 37.6602 42.8385 37.5508 42.4375 37.5508C42.0469 37.5508 41.7148 37.6562 41.4414 37.8672C41.168 38.0755 40.9596 38.3646 40.8164 38.7344C40.6758 39.1016 40.6055 39.5247 40.6055 40.0039ZM46.5137 43V37H47.1895V37.9219H47.2402C47.36 37.6198 47.5684 37.3763 47.8652 37.1914C48.1647 37.0039 48.5033 36.9102 48.8809 36.9102C48.9382 36.9102 49.002 36.9115 49.0723 36.9141C49.1426 36.9167 49.2012 36.9193 49.248 36.9219V37.6289C49.2168 37.6237 49.1621 37.6159 49.084 37.6055C49.0059 37.5951 48.9212 37.5898 48.8301 37.5898C48.5176 37.5898 48.2389 37.6562 47.9941 37.7891C47.752 37.9193 47.5605 38.1003 47.4199 38.332C47.2793 38.5638 47.209 38.8281 47.209 39.125V43H46.5137ZM52.1104 43.1367C51.7484 43.1367 51.4176 43.0664 51.1182 42.9258C50.8187 42.7826 50.5804 42.5768 50.4033 42.3086C50.2262 42.0378 50.1377 41.7096 50.1377 41.3242C50.1377 41.0273 50.1937 40.7773 50.3057 40.5742C50.4176 40.3711 50.5765 40.2044 50.7822 40.0742C50.988 39.944 51.2314 39.8411 51.5127 39.7656C51.7939 39.6901 52.1038 39.6315 52.4424 39.5898C52.7783 39.5482 53.0622 39.5117 53.2939 39.4805C53.5283 39.4492 53.7067 39.3997 53.8291 39.332C53.9515 39.2643 54.0127 39.1549 54.0127 39.0039V38.8633C54.0127 38.4544 53.8903 38.1328 53.6455 37.8984C53.4033 37.6615 53.0544 37.543 52.5986 37.543C52.1663 37.543 51.8135 37.638 51.54 37.8281C51.2692 38.0182 51.0791 38.2422 50.9697 38.5L50.3096 38.2617C50.445 37.9336 50.6325 37.6719 50.8721 37.4766C51.1117 37.2786 51.3799 37.1367 51.6768 37.0508C51.9736 36.9622 52.2744 36.918 52.5791 36.918C52.8083 36.918 53.0465 36.9479 53.2939 37.0078C53.5439 37.0677 53.7757 37.1719 53.9893 37.3203C54.2028 37.4661 54.376 37.6706 54.5088 37.9336C54.6416 38.194 54.708 38.5247 54.708 38.9258V43H54.0127V42.0508H53.9697C53.8864 42.2279 53.7627 42.3997 53.5986 42.5664C53.4346 42.7331 53.2288 42.8698 52.9814 42.9766C52.734 43.0833 52.4437 43.1367 52.1104 43.1367ZM52.2041 42.5C52.5739 42.5 52.8942 42.418 53.165 42.2539C53.4359 42.0898 53.6442 41.8724 53.79 41.6016C53.9385 41.3281 54.0127 41.0273 54.0127 40.6992V39.832C53.9606 39.8815 53.8734 39.9258 53.751 39.9648C53.6312 40.0039 53.4919 40.0391 53.333 40.0703C53.1768 40.099 53.0205 40.1237 52.8643 40.1445C52.708 40.1654 52.5674 40.1836 52.4424 40.1992C52.1038 40.2409 51.8148 40.306 51.5752 40.3945C51.3356 40.4831 51.152 40.6055 51.0244 40.7617C50.8968 40.9154 50.833 41.1133 50.833 41.3555C50.833 41.7201 50.9632 42.0026 51.2236 42.2031C51.484 42.401 51.8109 42.5 52.2041 42.5ZM58.9014 43.125C58.3649 43.125 57.8975 42.9909 57.499 42.7227C57.1032 42.4544 56.7959 42.0872 56.5771 41.6211C56.3584 41.1549 56.249 40.6237 56.249 40.0273C56.249 39.4258 56.3597 38.8906 56.5811 38.4219C56.805 37.9531 57.1149 37.5859 57.5107 37.3203C57.9066 37.0521 58.3662 36.918 58.8896 36.918C59.2907 36.918 59.654 36.9961 59.9795 37.1523C60.305 37.306 60.5732 37.5234 60.7842 37.8047C60.9977 38.0833 61.1318 38.4089 61.1865 38.7812H60.4834C60.4105 38.4427 60.2347 38.1536 59.9561 37.9141C59.68 37.6719 59.3285 37.5508 58.9014 37.5508C58.5186 37.5508 58.18 37.6549 57.8857 37.8633C57.5915 38.069 57.361 38.3568 57.1943 38.7266C57.0303 39.0937 56.9482 39.5195 56.9482 40.0039C56.9482 40.4909 57.029 40.9219 57.1904 41.2969C57.3519 41.6693 57.5785 41.9609 57.8701 42.1719C58.1644 42.3828 58.5081 42.4883 58.9014 42.4883C59.167 42.4883 59.4092 42.4388 59.6279 42.3398C59.8493 42.2383 60.0342 42.0951 60.1826 41.9102C60.3337 41.7253 60.4352 41.5052 60.4873 41.25H61.1904C61.1383 41.612 61.0094 41.9349 60.8037 42.2188C60.6006 42.5 60.3363 42.7214 60.0107 42.8828C59.6878 43.0443 59.318 43.125 58.9014 43.125ZM65.0439 37V37.6055H62.1807V37H65.0439ZM63.0752 35.5625H63.7744V41.4336C63.7744 41.6836 63.8174 41.8802 63.9033 42.0234C63.9893 42.1641 64.1012 42.2643 64.2393 42.3242C64.3773 42.3815 64.5244 42.4102 64.6807 42.4102C64.7718 42.4102 64.8499 42.4049 64.915 42.3945C64.9801 42.3815 65.0374 42.3685 65.0869 42.3555L65.2354 42.9844C65.1676 43.0104 65.0843 43.0339 64.9854 43.0547C64.8864 43.0781 64.764 43.0898 64.6182 43.0898C64.363 43.0898 64.1169 43.0339 63.8799 42.9219C63.6455 42.8099 63.4528 42.6432 63.3018 42.4219C63.1507 42.2005 63.0752 41.9258 63.0752 41.5977V35.5625ZM66.6309 43V37H67.3301V43H66.6309ZM66.9863 35.9687C66.8431 35.9687 66.7207 35.9206 66.6191 35.8242C66.5176 35.7253 66.4668 35.6068 66.4668 35.4687C66.4668 35.3307 66.5176 35.2135 66.6191 35.1172C66.7207 35.0182 66.8431 34.9687 66.9863 34.9687C67.1296 34.9687 67.252 35.0182 67.3535 35.1172C67.4551 35.2135 67.5059 35.3307 67.5059 35.4687C67.5059 35.6068 67.4551 35.7253 67.3535 35.8242C67.252 35.9206 67.1296 35.9687 66.9863 35.9687ZM71.5127 43.125C70.9762 43.125 70.5088 42.9909 70.1104 42.7227C69.7145 42.4544 69.4072 42.0872 69.1885 41.6211C68.9697 41.1549 68.8604 40.6237 68.8604 40.0273C68.8604 39.4258 68.971 38.8906 69.1924 38.4219C69.4163 37.9531 69.7262 37.5859 70.1221 37.3203C70.5179 37.0521 70.9775 36.918 71.501 36.918C71.902 36.918 72.2653 36.9961 72.5908 37.1523C72.9163 37.306 73.1846 37.5234 73.3955 37.8047C73.609 38.0833 73.7432 38.4089 73.7979 38.7812H73.0947C73.0218 38.4427 72.846 38.1536 72.5674 37.9141C72.2913 37.6719 71.9398 37.5508 71.5127 37.5508C71.1299 37.5508 70.7913 37.6549 70.4971 37.8633C70.2028 38.069 69.9723 38.3568 69.8057 38.7266C69.6416 39.0937 69.5596 39.5195 69.5596 40.0039C69.5596 40.4909 69.6403 40.9219 69.8018 41.2969C69.9632 41.6693 70.1898 41.9609 70.4814 42.1719C70.7757 42.3828 71.1195 42.4883 71.5127 42.4883C71.7783 42.4883 72.0205 42.4388 72.2393 42.3398C72.4606 42.2383 72.6455 42.0951 72.7939 41.9102C72.945 41.7253 73.0465 41.5052 73.0986 41.25H73.8018C73.7497 41.612 73.6208 41.9349 73.415 42.2188C73.2119 42.5 72.9476 42.7214 72.6221 42.8828C72.2992 43.0443 71.9294 43.125 71.5127 43.125ZM77.7178 43.125C77.1579 43.125 76.6735 42.9948 76.2646 42.7344C75.8558 42.4714 75.5394 42.1081 75.3154 41.6445C75.0941 41.1784 74.9834 40.6419 74.9834 40.0352C74.9834 39.431 75.0941 38.8945 75.3154 38.4258C75.5394 37.9544 75.848 37.5859 76.2412 37.3203C76.637 37.0521 77.0941 36.918 77.6123 36.918C77.9378 36.918 78.2516 36.9779 78.5537 37.0977C78.8558 37.2148 79.1266 37.3958 79.3662 37.6406C79.6084 37.8828 79.7998 38.1888 79.9404 38.5586C80.0811 38.9258 80.1514 39.3607 80.1514 39.8633V40.207H75.4639V39.5937H79.4404C79.4404 39.2083 79.3623 38.862 79.2061 38.5547C79.0524 38.2448 78.8376 38 78.5615 37.8203C78.2881 37.6406 77.9717 37.5508 77.6123 37.5508C77.2321 37.5508 76.8975 37.6523 76.6084 37.8555C76.3193 38.0586 76.0928 38.3268 75.9287 38.6602C75.7673 38.9935 75.6852 39.3581 75.6826 39.7539V40.1211C75.6826 40.5977 75.7646 41.0143 75.9287 41.3711C76.0954 41.7253 76.3311 42 76.6357 42.1953C76.9404 42.3906 77.3011 42.4883 77.7178 42.4883C78.0016 42.4883 78.2503 42.444 78.4639 42.3555C78.68 42.2669 78.861 42.1484 79.0068 42C79.1553 41.849 79.2673 41.6836 79.3428 41.5039L80.0029 41.7187C79.9118 41.9714 79.762 42.2044 79.5537 42.418C79.348 42.6315 79.0902 42.8034 78.7803 42.9336C78.473 43.0612 78.1188 43.125 77.7178 43.125ZM84.7773 43V37H85.4531V37.9219H85.5156C85.6354 37.612 85.8346 37.3685 86.1133 37.1914C86.3945 37.0117 86.7318 36.9219 87.125 36.9219C87.5391 36.9219 87.8789 37.0195 88.1445 37.2148C88.4128 37.4076 88.6133 37.6732 88.7461 38.0117H88.7969C88.9323 37.6784 89.1523 37.4141 89.457 37.2187C89.7643 37.0208 90.1367 36.9219 90.5742 36.9219C91.1315 36.9219 91.5716 37.0977 91.8945 37.4492C92.2174 37.7982 92.3789 38.3086 92.3789 38.9805V43H91.6836V38.9805C91.6836 38.5065 91.5625 38.151 91.3203 37.9141C91.0781 37.6771 90.7591 37.5586 90.3633 37.5586C89.9049 37.5586 89.5521 37.6992 89.3047 37.9805C89.0573 38.2617 88.9336 38.6185 88.9336 39.0508V43H88.2227V38.918C88.2227 38.5117 88.1094 38.1836 87.8828 37.9336C87.6563 37.6836 87.3372 37.5586 86.9258 37.5586C86.6497 37.5586 86.401 37.6263 86.1797 37.7617C85.9609 37.8971 85.7878 38.0859 85.6602 38.3281C85.5352 38.5677 85.4727 38.8437 85.4727 39.1562V43H84.7773ZM95.8955 43.1367C95.5335 43.1367 95.2028 43.0664 94.9033 42.9258C94.6038 42.7826 94.3656 42.5768 94.1885 42.3086C94.0114 42.0378 93.9229 41.7096 93.9229 41.3242C93.9229 41.0273 93.9788 40.7773 94.0908 40.5742C94.2028 40.3711 94.3617 40.2044 94.5674 40.0742C94.7731 39.944 95.0166 39.8411 95.2979 39.7656C95.5791 39.6901 95.889 39.6315 96.2275 39.5898C96.5635 39.5482 96.8473 39.5117 97.0791 39.4805C97.3135 39.4492 97.4919 39.3997 97.6143 39.332C97.7367 39.2643 97.7979 39.1549 97.7979 39.0039V38.8633C97.7979 38.4544 97.6755 38.1328 97.4307 37.8984C97.1885 37.6615 96.8395 37.543 96.3838 37.543C95.9515 37.543 95.5986 37.638 95.3252 37.8281C95.0544 38.0182 94.8643 38.2422 94.7549 38.5L94.0947 38.2617C94.2301 37.9336 94.4176 37.6719 94.6572 37.4766C94.8968 37.2786 95.165 37.1367 95.4619 37.0508C95.7588 36.9622 96.0596 36.918 96.3643 36.918C96.5934 36.918 96.8317 36.9479 97.0791 37.0078C97.3291 37.0677 97.5609 37.1719 97.7744 37.3203C97.988 37.4661 98.1611 37.6706 98.2939 37.9336C98.4268 38.194 98.4932 38.5247 98.4932 38.9258V43H97.7979V42.0508H97.7549C97.6715 42.2279 97.5479 42.3997 97.3838 42.5664C97.2197 42.7331 97.014 42.8698 96.7666 42.9766C96.5192 43.0833 96.2288 43.1367 95.8955 43.1367ZM95.9893 42.5C96.359 42.5 96.6794 42.418 96.9502 42.2539C97.221 42.0898 97.4294 41.8724 97.5752 41.6016C97.7236 41.3281 97.7979 41.0273 97.7979 40.6992V39.832C97.7458 39.8815 97.6585 39.9258 97.5361 39.9648C97.4163 40.0039 97.277 40.0391 97.1182 40.0703C96.9619 40.099 96.8057 40.1237 96.6494 40.1445C96.4932 40.1654 96.3525 40.1836 96.2275 40.1992C95.889 40.2409 95.5999 40.306 95.3604 40.3945C95.1208 40.4831 94.9372 40.6055 94.8096 40.7617C94.682 40.9154 94.6182 41.1133 94.6182 41.3555C94.6182 41.7201 94.7484 42.0026 95.0088 42.2031C95.2692 42.401 95.596 42.5 95.9893 42.5ZM100.976 40.7344L100.968 39.8242H101.124L103.937 37H104.815L102.038 39.7812L101.976 39.793L100.976 40.7344ZM100.343 43V35H101.038V43H100.343ZM104.081 43L101.644 39.918L102.144 39.4375L104.972 43H104.081ZM108.301 43.125C107.741 43.125 107.257 42.9948 106.848 42.7344C106.439 42.4714 106.122 42.1081 105.898 41.6445C105.677 41.1784 105.566 40.6419 105.566 40.0352C105.566 39.431 105.677 38.8945 105.898 38.4258C106.122 37.9544 106.431 37.5859 106.824 37.3203C107.22 37.0521 107.677 36.918 108.195 36.918C108.521 36.918 108.835 36.9779 109.137 37.0977C109.439 37.2148 109.71 37.3958 109.949 37.6406C110.191 37.8828 110.383 38.1888 110.523 38.5586C110.664 38.9258 110.734 39.3607 110.734 39.8633V40.207H106.047V39.5937H110.023C110.023 39.2083 109.945 38.862 109.789 38.5547C109.635 38.2448 109.421 38 109.145 37.8203C108.871 37.6406 108.555 37.5508 108.195 37.5508C107.815 37.5508 107.48 37.6523 107.191 37.8555C106.902 38.0586 106.676 38.3268 106.512 38.6602C106.35 38.9935 106.268 39.3581 106.266 39.7539V40.1211C106.266 40.5977 106.348 41.0143 106.512 41.3711C106.678 41.7253 106.914 42 107.219 42.1953C107.523 42.3906 107.884 42.4883 108.301 42.4883C108.585 42.4883 108.833 42.444 109.047 42.3555C109.263 42.2669 109.444 42.1484 109.59 42C109.738 41.849 109.85 41.6836 109.926 41.5039L110.586 41.7187C110.495 41.9714 110.345 42.2044 110.137 42.418C109.931 42.6315 109.673 42.8034 109.363 42.9336C109.056 43.0612 108.702 43.125 108.301 43.125ZM116.298 38.3164L115.661 38.4961C115.599 38.3164 115.51 38.1536 115.396 38.0078C115.281 37.862 115.131 37.7461 114.946 37.6602C114.764 37.5742 114.537 37.5312 114.267 37.5312C113.86 37.5312 113.527 37.6276 113.267 37.8203C113.006 38.013 112.876 38.2617 112.876 38.5664C112.876 38.8242 112.965 39.0339 113.142 39.1953C113.321 39.3542 113.597 39.4805 113.97 39.5742L114.876 39.7969C115.379 39.9193 115.755 40.1133 116.005 40.3789C116.257 40.6445 116.384 40.9779 116.384 41.3789C116.384 41.7174 116.29 42.0182 116.103 42.2812C115.915 42.5443 115.653 42.7513 115.317 42.9023C114.984 43.0508 114.597 43.125 114.157 43.125C113.571 43.125 113.088 42.9935 112.708 42.7305C112.328 42.4648 112.084 42.082 111.978 41.582L112.646 41.418C112.731 41.7747 112.899 42.0443 113.149 42.2266C113.402 42.4089 113.734 42.5 114.146 42.5C114.606 42.5 114.975 42.3971 115.251 42.1914C115.527 41.9831 115.665 41.7227 115.665 41.4102C115.665 41.168 115.584 40.9648 115.423 40.8008C115.261 40.6341 115.017 40.5117 114.688 40.4336L113.708 40.1992C113.187 40.0742 112.802 39.8763 112.552 39.6055C112.302 39.3346 112.177 38.9987 112.177 38.5977C112.177 38.2669 112.267 37.9766 112.446 37.7266C112.626 37.474 112.873 37.276 113.188 37.1328C113.504 36.9896 113.863 36.918 114.267 36.918C114.816 36.918 115.255 37.043 115.583 37.293C115.914 37.5404 116.152 37.8815 116.298 38.3164ZM121 45.25V37H121.676V38.1445H121.758C121.841 37.9648 121.956 37.7812 122.102 37.5937C122.247 37.4036 122.44 37.2435 122.68 37.1133C122.922 36.9831 123.227 36.918 123.594 36.918C124.089 36.918 124.521 37.0482 124.891 37.3086C125.263 37.5664 125.552 37.9284 125.758 38.3945C125.966 38.8581 126.07 39.3984 126.07 40.0156C126.07 40.6354 125.966 41.1784 125.758 41.6445C125.552 42.1107 125.263 42.474 124.891 42.7344C124.521 42.9948 124.091 43.125 123.602 43.125C123.24 43.125 122.936 43.0599 122.691 42.9297C122.449 42.7995 122.253 42.6393 122.102 42.4492C121.953 42.2565 121.839 42.069 121.758 41.8867H121.695V45.25H121ZM121.687 40.0039C121.687 40.4883 121.759 40.918 121.902 41.293C122.048 41.6654 122.257 41.9583 122.527 42.1719C122.801 42.3828 123.132 42.4883 123.52 42.4883C123.918 42.4883 124.254 42.3789 124.527 42.1602C124.803 41.9388 125.013 41.6406 125.156 41.2656C125.302 40.8906 125.375 40.4701 125.375 40.0039C125.375 39.543 125.303 39.1276 125.16 38.7578C125.02 38.388 124.811 38.0951 124.535 37.8789C124.259 37.6602 123.921 37.5508 123.52 37.5508C123.129 37.5508 122.797 37.6562 122.523 37.8672C122.25 38.0755 122.042 38.3646 121.898 38.7344C121.758 39.1016 121.687 39.5247 121.687 40.0039ZM130.021 43.125C129.462 43.125 128.977 42.9948 128.568 42.7344C128.16 42.4714 127.843 42.1081 127.619 41.6445C127.398 41.1784 127.287 40.6419 127.287 40.0352C127.287 39.431 127.398 38.8945 127.619 38.4258C127.843 37.9544 128.152 37.5859 128.545 37.3203C128.941 37.0521 129.398 36.918 129.916 36.918C130.242 36.918 130.555 36.9779 130.857 37.0977C131.16 37.2148 131.43 37.3958 131.67 37.6406C131.912 37.8828 132.104 38.1888 132.244 38.5586C132.385 38.9258 132.455 39.3607 132.455 39.8633V40.207H127.768V39.5937H131.744C131.744 39.2083 131.666 38.862 131.51 38.5547C131.356 38.2448 131.141 38 130.865 37.8203C130.592 37.6406 130.275 37.5508 129.916 37.5508C129.536 37.5508 129.201 37.6523 128.912 37.8555C128.623 38.0586 128.396 38.3268 128.232 38.6602C128.071 38.9935 127.989 39.3581 127.986 39.7539V40.1211C127.986 40.5977 128.068 41.0143 128.232 41.3711C128.399 41.7253 128.635 42 128.939 42.1953C129.244 42.3906 129.605 42.4883 130.021 42.4883C130.305 42.4883 130.554 42.444 130.768 42.3555C130.984 42.2669 131.165 42.1484 131.311 42C131.459 41.849 131.571 41.6836 131.646 41.5039L132.307 41.7187C132.215 41.9714 132.066 42.2044 131.857 42.418C131.652 42.6315 131.394 42.8034 131.084 42.9336C130.777 43.0612 130.423 43.125 130.021 43.125ZM133.987 43V37H134.663V37.9219H134.714C134.834 37.6198 135.042 37.3763 135.339 37.1914C135.638 37.0039 135.977 36.9102 136.354 36.9102C136.412 36.9102 136.476 36.9115 136.546 36.9141C136.616 36.9167 136.675 36.9193 136.722 36.9219V37.6289C136.69 37.6237 136.636 37.6159 136.558 37.6055C136.479 37.5951 136.395 37.5898 136.304 37.5898C135.991 37.5898 135.713 37.6562 135.468 37.7891C135.226 37.9193 135.034 38.1003 134.894 38.332C134.753 38.5638 134.683 38.8281 134.683 39.125V43H133.987ZM140.753 37V37.6055H137.804V37H140.753ZM138.726 43V36.1211C138.726 35.7982 138.8 35.526 138.948 35.3047C139.099 35.0833 139.296 34.9154 139.538 34.8008C139.78 34.6862 140.037 34.6289 140.308 34.6289C140.49 34.6289 140.641 34.6445 140.761 34.6758C140.883 34.7044 140.979 34.7331 141.05 34.7617L140.847 35.3711C140.795 35.3555 140.731 35.3372 140.655 35.3164C140.58 35.2956 140.485 35.2852 140.37 35.2852C140.068 35.2852 139.835 35.3698 139.671 35.5391C139.507 35.7083 139.425 35.9505 139.425 36.2656L139.421 43H138.726ZM144.319 43.125C143.759 43.125 143.275 42.9948 142.866 42.7344C142.457 42.4714 142.141 42.1081 141.917 41.6445C141.696 41.1784 141.585 40.6419 141.585 40.0352C141.585 39.431 141.696 38.8945 141.917 38.4258C142.141 37.9544 142.45 37.5859 142.843 37.3203C143.239 37.0521 143.696 36.918 144.214 36.918C144.539 36.918 144.853 36.9779 145.155 37.0977C145.457 37.2148 145.728 37.3958 145.968 37.6406C146.21 37.8828 146.401 38.1888 146.542 38.5586C146.683 38.9258 146.753 39.3607 146.753 39.8633V40.207H142.065V39.5937H146.042C146.042 39.2083 145.964 38.862 145.808 38.5547C145.654 38.2448 145.439 38 145.163 37.8203C144.89 37.6406 144.573 37.5508 144.214 37.5508C143.834 37.5508 143.499 37.6523 143.21 37.8555C142.921 38.0586 142.694 38.3268 142.53 38.6602C142.369 38.9935 142.287 39.3581 142.284 39.7539V40.1211C142.284 40.5977 142.366 41.0143 142.53 41.3711C142.697 41.7253 142.933 42 143.237 42.1953C143.542 42.3906 143.903 42.4883 144.319 42.4883C144.603 42.4883 144.852 42.444 145.065 42.3555C145.282 42.2669 145.463 42.1484 145.608 42C145.757 41.849 145.869 41.6836 145.944 41.5039L146.604 41.7187C146.513 41.9714 146.364 42.2044 146.155 42.418C145.95 42.6315 145.692 42.8034 145.382 42.9336C145.075 43.0612 144.72 43.125 144.319 43.125ZM150.629 43.125C150.092 43.125 149.625 42.9909 149.227 42.7227C148.831 42.4544 148.523 42.0872 148.305 41.6211C148.086 41.1549 147.977 40.6237 147.977 40.0273C147.977 39.4258 148.087 38.8906 148.309 38.4219C148.533 37.9531 148.842 37.5859 149.238 37.3203C149.634 37.0521 150.094 36.918 150.617 36.918C151.018 36.918 151.382 36.9961 151.707 37.1523C152.033 37.306 152.301 37.5234 152.512 37.8047C152.725 38.0833 152.859 38.4089 152.914 38.7812H152.211C152.138 38.4427 151.962 38.1536 151.684 37.9141C151.408 37.6719 151.056 37.5508 150.629 37.5508C150.246 37.5508 149.908 37.6549 149.613 37.8633C149.319 38.069 149.089 38.3568 148.922 38.7266C148.758 39.0937 148.676 39.5195 148.676 40.0039C148.676 40.4909 148.757 40.9219 148.918 41.2969C149.079 41.6693 149.306 41.9609 149.598 42.1719C149.892 42.3828 150.236 42.4883 150.629 42.4883C150.895 42.4883 151.137 42.4388 151.355 42.3398C151.577 42.2383 151.762 42.0951 151.91 41.9102C152.061 41.7253 152.163 41.5052 152.215 41.25H152.918C152.866 41.612 152.737 41.9349 152.531 42.2188C152.328 42.5 152.064 42.7214 151.738 42.8828C151.415 43.0443 151.046 43.125 150.629 43.125ZM156.771 37V37.6055H153.908V37H156.771ZM154.803 35.5625H155.502V41.4336C155.502 41.6836 155.545 41.8802 155.631 42.0234C155.717 42.1641 155.829 42.2643 155.967 42.3242C156.105 42.3815 156.252 42.4102 156.408 42.4102C156.499 42.4102 156.577 42.4049 156.643 42.3945C156.708 42.3815 156.765 42.3685 156.814 42.3555L156.963 42.9844C156.895 43.0104 156.812 43.0339 156.713 43.0547C156.614 43.0781 156.492 43.0898 156.346 43.0898C156.09 43.0898 155.844 43.0339 155.607 42.9219C155.373 42.8099 155.18 42.6432 155.029 42.4219C154.878 42.2005 154.803 41.9258 154.803 41.5977V35.5625Z" fill="#D6D6D6"/>
<path d="M0 36.7056L7.2 9.6L0 0H24L16.8 9.6L24 36.7056L12 48L0 36.7056Z" fill="#CACACA"/>
</svg>
